<svg width="78" height="54" viewBox="0 0 78 54" fill="none" xmlns="http://www.w3.org/2000/svg">
<path d="M32 13.2C32 12.0799 32 11.5198 32.218 11.092C32.4097 10.7157 32.7157 10.4097 33.092 10.218C33.5198 10 34.0799 10 35.2 10H45.1562C45.3678 10 45.4737 10 45.5794 10.0007C46.8578 10.0098 48.1343 10.1005 49.4012 10.2723C49.5059 10.2866 49.6107 10.3015 49.8203 10.3315L51.2165 10.5309C53.3944 10.8421 55.5167 11.4622 57.5195 12.3725L58.1012 12.6369C59.3627 13.2103 60.5526 13.9298 61.6464 14.7805L61.8448 14.9348C63.5969 16.2976 65.0556 18.0002 66.1336 19.9405C66.7095 20.9771 67.1719 22.0729 67.5126 23.2088L67.8116 24.2052C68.2695 25.7315 68.5798 27.2983 68.7384 28.884L68.7752 29.2515C68.9246 30.7464 68.9164 32.2528 68.7505 33.7459C68.584 35.2444 68.2596 36.7212 67.7828 38.1516L67.5751 38.7747C67.1925 39.9224 66.7043 41.0322 66.1168 42.0897C65.0466 44.0161 63.6587 45.7478 62.0117 47.2118L61.8068 47.394C60.6062 48.4612 59.2852 49.3899 57.875 50.1591C55.646 51.3749 53.2128 52.1839 50.6993 52.543L49.4763 52.7177C48.1604 52.9057 46.8329 53 45.5036 53H35.2C34.0799 53 33.5198 53 33.092 52.782C32.7157 52.5903 32.4097 52.2843 32.218 51.908C32 51.4802 32 50.9201 32 49.8V13.2Z" fill="#333333"/>
<path d="M35 16.2C35 15.0799 35 14.5198 35.218 14.092C35.4097 13.7157 35.7157 13.4097 36.092 13.218C36.5198 13 37.0799 13 38.2 13H46.0164C47.328 13 48.638 13.0956 49.9357 13.286L51.0762 13.4533C52.9165 13.7233 54.7075 14.2602 56.3929 15.0469L56.843 15.257C57.9168 15.7583 58.9274 16.3854 59.8533 17.125L59.9709 17.219C61.4616 18.4097 62.6975 19.888 63.6052 21.566C64.0833 22.4498 64.4664 23.3816 64.7481 24.3461L65.0026 25.2173C65.3874 26.5347 65.648 27.8852 65.781 29.2511L65.8119 29.5677C65.937 30.8525 65.93 32.1468 65.7912 33.4302C65.6515 34.7213 65.379 35.9947 64.9781 37.2299L64.8007 37.7764C64.4838 38.7529 64.0786 39.6985 63.5901 40.6014C62.6896 42.2662 61.5159 43.7679 60.1181 45.044L59.9582 45.1899C58.9623 46.0991 57.8654 46.8909 56.689 47.5499C54.8131 48.6008 52.7607 49.2995 50.6333 49.6117L49.6484 49.7562C48.5419 49.9185 47.4251 50 46.3068 50H38.2C37.0799 50 36.5198 50 36.092 49.782C35.7157 49.5903 35.4097 49.2843 35.218 48.908C35 48.4802 35 47.9201 35 46.8V16.2Z" fill="#F7F7F7"/>
<path d="M23.0911 4.61777C23.5491 3.76675 23.7781 3.34125 24.0824 3.20141C24.3475 3.07957 24.6525 3.07957 24.9176 3.20141C25.2219 3.34125 25.4509 3.76675 25.9089 4.61777L47.0464 43.8917C47.4649 44.6691 47.6741 45.0578 47.634 45.3753C47.599 45.6523 47.4497 45.9021 47.2224 46.0642C46.9618 46.25 46.5204 46.25 45.6375 46.25H3.36245C2.4796 46.25 2.03817 46.25 1.77763 46.0642C1.55025 45.9021 1.40101 45.6523 1.36602 45.3753C1.32594 45.0578 1.53514 44.6691 1.95355 43.8917L23.0911 4.61777Z" fill="#333333"/>
<path d="M23.0911 10.5178C23.5491 9.66675 23.7781 9.24124 24.0824 9.1014C24.3475 8.97957 24.6525 8.97957 24.9176 9.1014C25.2219 9.24124 25.4509 9.66675 25.9089 10.5178L42.2833 40.9417C42.7017 41.7191 42.9109 42.1078 42.8708 42.4253C42.8358 42.7023 42.6866 42.9521 42.4592 43.1142C42.1987 43.3 41.7573 43.3 40.8744 43.3H8.12559C7.24274 43.3 6.80131 43.3 6.54077 43.1142C6.31339 42.9521 6.16415 42.7023 6.12916 42.4253C6.08907 42.1078 6.29828 41.7191 6.71669 40.9417L23.0911 10.5178Z" fill="#F7F7F7"/>
<path d="M52.5 0V43" stroke="black" stroke-width="3"/>
<path d="M78 36H46" stroke="black" stroke-width="3"/>
</svg>
